/* XPM */
static char *_b91f238169a4b3da3fe6e2037c81b9cir6CTignxmQ04NSC[] = {
/* columns rows colors chars-per-pixel */
"64 64 2 1 ",
"  c black",
". c #E91D1D",
/* pixels */
"                        ..................                      ",
"                        ..................                      ",
"                                                                ",
"                                                                ",
"                                                                ",
"                                                                ",
"                                                                ",
"                                                                ",
"                                                                ",
"                                                                ",
"                                                                ",
"                                                                ",
"                                                                ",
"                                                                ",
"                            ............                        ",
"                            ............                        ",
"                        ....            ....                    ",
"                        ....            ....                    ",
"                      ..                    ..                  ",
"                      ..                    ..                  ",
"                    ..                        ..                ",
"                    ..                        ..                ",
"                    ..                        ..                ",
"                    ..                        ..                ",
"                  ..                            ..              ",
"                  ..                            ..              ",
"                  ..                            ..              ",
"                  ..                            ..              ",
"                  ..                            ..              ",
"                  ..                            ..              ",
"                  ..                            ..              ",
"                  ..                            ..              ",
"                  ..                            ..              ",
"                  ..                            ..              ",
"                  ..                            ..              ",
"                  ..                            ..              ",
"                    ..                        ..                ",
"                    ..                        ..                ",
"                    ..                        ..                ",
"                    ..                        ..                ",
"                      ..                    ..                  ",
"                      ..                    ..                  ",
"                        ....            ....                    ",
"                        ....            ....                    ",
"                            ............                        ",
"                            ............                        ",
"                                                                ",
"                                                                ",
"                                                                ",
"                                                                ",
"                                                                ",
"                                                                ",
"                                                                ",
"                                                                ",
"                                                                ",
"                                                                ",
"                                                                ",
"                                                                ",
"                                                                ",
"                                                                ",
"                                                                ",
"                                                                ",
"                                                                ",
"                                                                "
};
