/* XPM */
static char *c7af90361c134ddbfd1c93000effa878YLQbkBSYFNi9qDW4[] = {
/* columns rows colors chars-per-pixel */
"64 64 100 2 ",
"   c #000000",
".  c #060708",
"X  c #060809",
"o  c #0A0B0D",
"O  c #0E0F11",
"+  c #121214",
"@  c #191717",
"#  c #1A1817",
"$  c #161618",
"%  c #181718",
"&  c #1C1A1C",
"*  c #211F1E",
"=  c #24211F",
"-  c #1F1D20",
";  c #201F20",
":  c #252324",
">  c #292624",
",  c #2E2925",
"<  c #272528",
"1  c #292728",
"2  c #2D2A2C",
"3  c #302B26",
"4  c #312D2D",
"5  c #36312C",
"6  c #39342D",
"7  c #3F392F",
"8  c #332F30",
"9  c #363132",
"0  c #3A3535",
"q  c #3E3836",
"w  c #3F3938",
"e  c #423B35",
"r  c #433C3A",
"t  c #46403D",
"y  c #4A423E",
"u  c #50463F",
"i  c #51493F",
"p  c #4D4541",
"a  c #4F4946",
"s  c #504742",
"d  c #534943",
"f  c #564A41",
"g  c #534A45",
"h  c #544A45",
"j  c #574D45",
"k  c #574D47",
"l  c #574E47",
"z  c #584E46",
"x  c #564F4A",
"c  c #5A4F48",
"v  c #5A5245",
"b  c #5C5447",
"n  c #5A5048",
"m  c #5C5149",
"M  c #5C524B",
"N  c #5F534A",
"B  c #5F5752",
"V  c #60544B",
"C  c #63564D",
"Z  c #65574D",
"A  c #66594F",
"S  c #685B4F",
"D  c #695C4F",
"F  c #655A51",
"G  c #675B50",
"H  c #6A5C50",
"J  c #6C5D50",
"K  c #68604E",
"L  c #6F6153",
"P  c #6F6054",
"I  c #6D6254",
"U  c #6E665F",
"Y  c #726354",
"T  c #726355",
"R  c #736455",
"E  c #736557",
"W  c #786857",
"Q  c #756759",
"!  c #74675A",
"~  c #76695A",
"^  c #796959",
"/  c #7A6C5D",
"(  c #7C6E5D",
")  c #716861",
"_  c #7E7161",
"`  c #7C736B",
"'  c #806E5B",
"]  c #82725F",
"[  c #837562",
"{  c #867762",
"}  c #877863",
"|  c #887A66",
" . c #897B68",
".. c #837971",
"X. c #8F826C",
"o. c #93846D",
"O. c #98886E",
"+. c #968871",
"@. c #9C8D75",
"#. c #9F9177",
/* pixels */
"                                                                                                                                ",
"                                                                                                                                ",
"                                                                                                                                ",
"                                                                                                                                ",
"                                                                                                                                ",
"                                                                                                                                ",
"                                                                                                                                ",
"                                                                                                                                ",
"                                                                                                                                ",
"                                                                                                                                ",
"                                                                                                                                ",
"                                                                                                                                ",
"                                                                                                                                ",
"                                                                                                                                ",
"                                                                                                                                ",
"                                                                                                                                ",
"                                                                                                                                ",
"                          &                       +                         *                       &                           ",
"                          :                       %                       o &                       :                           ",
"                        & 5 >                     1 f                     : d +                     0 e                         ",
"                        ; w ,                     9 J                     4 m                       r y                         ",
"                        * r ,                     q H                     9 V                       r y                         ",
"                        2 9 r                   4 9 y >                 % 2 e 9                   4 9 r                         ",
"                        4 s H                   4 p L q                 & 4 P k                   9 m E                         ",
"                        2 2 0                   1 2 9 >                 % 1 4 0                   1 2 q                         ",
"                      8 4 m r T               9 9 0 T p                 9 8 E 0 ^               8 0 m k ^                       ",
"                      4 r r n Q               9 r p g Z                 9 p y m ^               9 r y m J                       ",
"                      1 y g m H               2 r g c G                 9 g k C E               2 r s n H                       ",
"                                                  O   O                                                                         ",
"                        4 r z                   2 r t y                   9 r H                   2 q y                         ",
"                        0 p V                   2 y y i                   r r T                   2 p h                         ",
"                        q h (                   2 h n K                   y h O.                o 2 h H                         ",
"                        9 r z                   2 0 y y                   r r H                   1 y h                         ",
"                        4 0 y                   1 9 0 6                   5 9 k                   < 9 q                         ",
"                        ; : 4                 . ; 1 1 :                 + : : 2                   - 1 1                         ",
"                                                    X                                   X       .                               ",
"                  1 9   4 2 f   9 0 0 9 9 9 2   8 8 q r 4 9 0 0 0 9 9 q % 9 0 S   9 9 9 0 0 9 8   4 4 y   4 4                   ",
"                  w r   ; m ^   r r s r 0 p q   9 o H k r y w p r 0 m p & & C {   w 0 f r y w y   9 f E   y y                   ",
"                  p r   r r Q   r m m s h h r   g q H b r s V d k m h y > y k ]   y y m z z g y o k y L   y z                   ",
"                  > =   5 5 e o : 7 7 , , 5 * . 4 6 e 4 * 3 7 3 6 6 4 : @ 5 q y   : , q 4 5 5 :   5 6 y   > 4                   ",
"                        4 r V                   1 9 y i                 % 9 p Q                   1 0 h                         ",
"                        0 s E                   2 r k m                 % r z |                   2 p C                         ",
"                        0 z P                 . 2 g k v                 % p h {                   2 k Z                         ",
"                        r n J                   2 k z v                 % p d ]                   2 c C                         ",
"                        r m {                   2 k H P                 % h c O.                  2 k Q                         ",
"                        4 0 h                   1 9 r e                   q w V                   : w r                         ",
"                        < > 1                   : 2 1 <                 + 1 1 4 .                 ; 1 1                         ",
"                      .   X               . .                     . . .             .           .   .                           ",
"                  1 0   9 4 z O 9 0 0 0 0 9 9   9 0 q y 9 9 0 0 q 0 0 w & 9 9 E   0 0 0 9 0 9 9   9 4 d   9 1                   ",
"                  0 r   ; m ^ + 0 q p y r r y   9 o H v r 0 r z r r q p & % V {   r r m r r r r o 9 u T   p q                   ",
"                  y r   y y ^ + y C z d z k y   k r H m r d V z d m p r > y d }   g g m z h k r   m y Q   y h                   ",
"                  * &   > 3 6   & , , = > = %   > , 5 > # * 3 = = , & % + > , 7   * = , > = = @   , , 6   * >                   ",
"                        1 r Q O                 1 4 s V                 $ 1 p [                   < 9 H                         ",
"                        q g (                   1 p A K                 % t C O.                  2 h E                         ",
"                        q s H O                 1 y z k                 % y h /                 X 2 z A                         ",
"                        9 y E O                 1 r C v                 % r k {                   2 k J                         ",
"                        4 9 9                   < 9 9 2                 + 9 2 q                   : 9 4                         ",
"                      . : 1 >                   & : < &                 + < : 1 .                 & < <                         ",
"                                                                                                                                ",
"                  1 1 1 2 2 2 2 2 2 2 2 2 2 2 1 1 2 2 2 2 2 2 2 2 2 2 2 2 2 2 2 2 2 2 2 2 2 2 2 2 2 2 2 2 2 2                   ",
"                  q k A r g T T A H H T m V H T r t H ' D H T J T z A J Z y h E H H z J c H T H A T g T m W J                   ",
"                  0 n h + x n Z n k n Z a c k k + t n C m C C H m g c C m ; a C C c c c c g C m n k r B m C k                   ",
"                  8 k g : ..G k m n m g m m C c > ` m c m m G c k n m g C 9 ` m m c m m m C C G m n U ) n n H                   ",
"                  0 ^ P _ _ _ _ ( Q _ o.[ ( ( ~ ( _ [ @.{ ~ _ _ @.@.o.@.+. .Q Q | @.@.@.#.@.#.#.+.X._ [ _ O.|                   "
};
