/* XPM */
static char *_f371ade782048d9c737a68713afe9b9pkxp5W0i1Z0HRs5E[] = {
/* columns rows colors chars-per-pixel */
"64 64 100 2 ",
"   c #000000",
".  c #060708",
"X  c #070809",
"o  c #0A0A0C",
"O  c #0D0E10",
"+  c #0F1012",
"@  c #121214",
"#  c #191717",
"$  c #1A1817",
"%  c #171718",
"&  c #191718",
"*  c #1B1A1B",
"=  c #211F1E",
"-  c #24211F",
";  c #1F1D20",
":  c #211F20",
">  c #252223",
",  c #292624",
"<  c #2E2925",
"1  c #272528",
"2  c #292728",
"3  c #2D2B2C",
"4  c #302C27",
"5  c #312D2C",
"6  c #36312C",
"7  c #3A342D",
"8  c #3F392F",
"9  c #332F30",
"0  c #363132",
"q  c #3A3534",
"w  c #3E3835",
"e  c #3F3938",
"r  c #413A35",
"t  c #413A39",
"y  c #423C3A",
"u  c #453D3B",
"i  c #453E3C",
"p  c #463E3C",
"a  c #47403C",
"s  c #48403D",
"d  c #4B423F",
"f  c #4C433F",
"g  c #4E453C",
"h  c #4C443E",
"j  c #50463F",
"k  c #4C4340",
"l  c #4D4440",
"z  c #4F4946",
"x  c #504743",
"c  c #534840",
"v  c #564A41",
"b  c #524844",
"n  c #554A45",
"m  c #544B45",
"M  c #574D47",
"N  c #584E46",
"B  c #564F4A",
"V  c #5A4F48",
"C  c #5B5048",
"Z  c #5E5249",
"A  c #5D524A",
"S  c #5F5752",
"D  c #60544B",
"F  c #62564D",
"G  c #65574D",
"H  c #685B4F",
"J  c #695C4F",
"K  c #655A51",
"L  c #675B50",
"P  c #6B5C51",
"I  c #6C5D50",
"U  c #6F6153",
"Y  c #6F6054",
"T  c #6E665F",
"R  c #726254",
"E  c #726455",
"W  c #736455",
"Q  c #786857",
"!  c #756658",
"~  c #74675A",
"^  c #76695A",
"/  c #786858",
"(  c #7A6C5C",
")  c #7C6E5D",
"_  c #716861",
"`  c #7E7161",
"'  c #7C736C",
"]  c #806E5B",
"[  c #82735F",
"{  c #847562",
"}  c #877863",
"|  c #897A66",
" . c #897B68",
".. c #837971",
"X. c #8F826C",
"o. c #92836D",
"O. c #98886E",
"+. c #968871",
"@. c #9C8E75",
"#. c #9F9177",
/* pixels */
"                                                                                                                                ",
"                                                                                                                                ",
"                                                                                                                                ",
"                                                                                                                                ",
"                                                                                                                                ",
"                                                                                                                                ",
"                                                                                                                                ",
"                                                                                                                                ",
"                                                                                                                                ",
"                                                                                                                                ",
"                                                                                                                                ",
"                                                                                                                                ",
"                                                                                                                                ",
"                                                                                                                                ",
"                                                                                                                                ",
"                                                                                                                                ",
"          *                         @                         =                         *                         =             ",
"          >                         & @                     o *                         >                       o *             ",
"        * 6 ,                     @ 2 v                     > c @                     @ q r                     > c @           ",
"        : e <                     + 0 I                     5 Z O                     O t h                     5 Z O           ",
"        = p <                     O e P                     0 D o                     o t d                     0 D o           ",
"      o 3 0 y O                 X 5 0 h ,                 & 3 t 0 X                 o 5 0 u o                 & 3 t 0 X         ",
"      X 5 x P O                 X 5 l U w                 * 5 Y M X                 o 0 Z E o                 * 5 Y M X         ",
"      o 3 3 q o                 X 2 3 0 ,                 & 2 5 q X                 o 2 3 w X                 & 2 5 q X         ",
"    o 9 5 Z u R o             X 0 0 q R l o             o 0 9 E q / X             o 9 q Z M / o             o 0 9 E q / o       ",
"    o 5 t u C ! O             X 0 t k b G o             X 0 k d Z / o             o 0 t d Z I o             X 0 k d Z / o       ",
"    o 2 d b Z P O             X 3 p b V L o             X 0 b M F E o             o 3 p x Z P o             X 0 b M F E o       ",
"    X X o O O o o             X o o O o O o             X o o o o o X             X X o o O o X             X o o o o o X       ",
"      o 5 t N +                 X 3 t a &                 % 0 t P X                 o 3 w d o                 % 0 t P X         ",
"      o q l D +                 X 3 d d &                 & y p R X                 o 3 l n o                 & y p R X         ",
"      o w n ) @                 X 3 n C &                 & d n O.X                 o 3 n P o                 & d n O.X         ",
"      o 0 t N O                 X 3 q d *                 & t u P X                 o 2 f n o                 & t u P X         ",
"      o 5 q d o                 X 2 0 q *                 @ 0 0 M X                 X 1 0 e o                 @ 0 0 M X         ",
"      X : > 5 X                 . : 2 2 &                 @ > > 3 .                 . ; 2 2 X                 @ > > 3 .         ",
"  X X . X X X . X X X X X X X X . X X X & X X X X X X X X . X X X . X X X X X X X X . X X X . X X X X X X X X . X X X . X X X   ",
"o 2 0 o 5 3 v @ 0 q q 0 0 0 0 3 X 9 9 e & 5 0 q q 0 0 0 w & 0 q H o 0 0 q q 0 0 0 9 o 5 5 d o 5 q q 0 0 0 0 w & 0 q H o 0 0 0 o ",
"X e p o : Z / @ t t x u q q l w o 0 o P & y d l u q Z 0 l * * F } o e v t d e d 0 d o 0 v E + d l u q Z 0 N l * * F } o e q q o ",
"o k t O y u ! @ u Z Z x n n n u o b w P & t x c M Z n 4 d , d M [ o d Z N N b b N d o M h U + d c M Z n N 0 d , d M [ o d f f o ",
"  , - X 6 6 r o > 8 8 < < < 6 = X 5 7 t & = 4 4 7 7 5 4 > # 6 w h X > > 5 6 6 5 4 > X 6 7 d X , 4 7 7 5 5 4 > # 6 w h X > < X   ",
"      X 5 t D +                 X 2 0 d &                 & 0 l ^ X                 X 2 q n o                 & 0 l ^ X         ",
"      X q x E @                 X 3 y M *                 & p N | X                 o 3 l F o                 & p N | X         ",
"      o q N Y +                 X 3 b M *                 & l n } X                 X 3 M G o                 & l n } X         ",
"      X t C I +                 X 3 M N *                 & l c [ X                 X 3 V F o                 & l c [ X         ",
"      X y Z } +                 X 3 M P &                 & n V O.X                 X 3 M ^ O                 & n V O.X         ",
"      X 5 q n o                 X 2 0 t &                 @ w e D X                 X > e u o                 @ w e D X         ",
"      . 1 , 2 X                 . > 3 2 &                 @ 2 2 5 .                 . : 2 2 .                 @ 2 2 5 .         ",
"  X X . X X X . X X X X X X . . . X X X X . . X X X . . . . X X X . . X X X . . . . . X X X . X X X X . . . . . X X X . . . o   ",
"o 2 q o 0 5 N O 0 q q q q q 0 0 & 0 q w & 0 0 q w q q q e * 0 0 E o q q 0 q 0 q q 0 o 0 5 c o 0 q w q q f q e * 0 0 E o q q y o ",
"o q p o : Z / @ q w l d t t t d & 0 D & & y q N p y w w k * & D } o t Z t y y y y p o 0 j R + l N p y w f w k * & D } o t y y o ",
"X d p o d h / @ d F N c N N M d & M u P & y c N c Z l w p , d c } O b Z N n M Z Z t O Z h ! @ d N c Z l l l p , d c } O b b b o ",
"  = * X , 4 7 X * < < - , - - & & , < 6 & $ = - - < * > & @ , < 8 X = < , - - - - # X < < 7 o = - - < * < & & @ , < 8 X = - o   ",
"      X 2 t ^ O                 X 2 5 x &                 % 2 l { X                 X 1 0 P O                 % 2 l { X         ",
"      X e b ) +                 X 2 l G &                 & a F O.X                 X 3 n E O                 & a F O.X         ",
"      X w x P O                 X 2 d N &                 & d n ( X                 X 3 N G O                 & d n ( X         ",
"      X 0 d E O                 X 2 u F &                 & u M } X                 X 3 M I o                 & u M } X         ",
"      X 5 0 0 X                 X 1 0 0 &                 @ 0 3 w X                 X > 0 5 X                 @ 0 3 w X         ",
"      X > 2 , .                 . * > 1 &                 @ 1 > 2 .                 X * 1 1 .                 @ 1 > 2 .         ",
"  X . . . X X . . . . . . & . . . . . X . . . . . . . & . . . X . . . . . . X & & . . . . . . . . . . & & & . . . X . . . . .   ",
"X 2 2 2 3 3 3 3 3 3 3 3 3 3 3 3 2 2 3 3 3 3 3 3 3 3 3 3 3 3 3 3 3 3 3 3 3 3 3 3 3 3 3 3 3 3 3 3 3 3 3 3 3 3 3 3 3 3 3 3 3 3 3 . ",
"X w M G p b R R G P L R Z P F P R y a P ] J P I R N G P I G d n E P P I V P R P P P G R b R Z Q I R N G P b I G d n E P P N V . ",
"X q C n @ B C G C M C G l F V M M @ a C F Z F P Z b V F F Z : z F F V V V b F F F Z C M p S Z F P Z b V b b F Z : z F F V V V . ",
"X 9 M b > ..L M Z C Z b Z P Z F V , ' Z V Z Z V M C Z F b F 0 ' Z Z V Z Z F F F P L Z C T _ C C V M C Z P b n F 0 ' Z Z V Z Z . ",
"X q / Y ` ` ` ` ) ! ` o.{ Z ) ) ^ ) ` { @.{ ^ ` @.@.o.P @.+. .! ^ | @.@.#.@.#.@.P #.+.X.` { ` O.` @.@.o.o.@.@.+. .! ^ | @.@.@.. ",
"  X X X X X X X X X X X X X X X X X X X X X X X X X X X X X X X X X X X X X X X X X X X X X X X X X X X & & X X X X X X X X .   "
};
