/* XPM */
static char *cbb385cff5ee4ac8fcbdf31ede176a13MqkBn9TUGxdnV21z[] = {
/* columns rows colors chars-per-pixel */
"64 64 2 1 ",
"  c #000000",
". c #FFFFFF",
/* pixels */
"                   ......................                       ",
"                   ......................                       ",
"                   ......................                       ",
"                   ......................                       ",
"                   ......................                       ",
"                   ......................                       ",
"                   ......................                       ",
"                   ......................                       ",
"                   ......................                       ",
"                   ......................                       ",
"                   ......................                       ",
"                   ......................                       ",
"                   ......................                       ",
"                   ......................                       ",
"                   ......................                       ",
"                   ......................                       ",
"                   ......................                       ",
"                   ......................                       ",
"                   ......................                       ",
"                   ......................                       ",
"                   ......................                       ",
"                   ......................                       ",
"                   ......................                       ",
"                   ......................                       ",
"                   ......................                       ",
"                   ......................                       ",
"                   ......................                       ",
"                   ......................                       ",
"                   ......................                       ",
"                   ......................                       ",
"                   ......................                       ",
"                   ......................                       ",
"                   ......................                       ",
"                   ......................                       ",
"                   ......................                       ",
".........................................                       ",
" ...............................................................",
"  ............................................................. ",
"   ...........................................................  ",
"    ........................................................    ",
"     ......................................................     ",
"      ....................................................      ",
"       .................................................        ",
"        ...............................................         ",
"         .............................................          ",
"          ..........................................            ",
"           ........................................             ",
"            ......................................              ",
"             ....................................               ",
"              .................................                 ",
"               ...............................                  ",
"                .............................                   ",
"                 ..........................                     ",
"                  ........................                      ",
"                   ......................                       ",
"                    ....................                        ",
"                     .................                          ",
"                      ...............                           ",
"                       .............                            ",
"                        ..........                              ",
"                         ........                               ",
"                          ......                                ",
"                           ...                                  ",
"                            .                                   "
};
