/* XPM */
static char *_e914f6c146148aa8b29611fed11e778UFSQoZsTOhRLjTdW[] = {
/* columns rows colors chars-per-pixel */
"64 64 2 1 ",
"  c black",
". c #FF00FF",
/* pixels */
"................................................................",
"................................................................",
"................................................................",
"................................................................",
"......  ..  ..  ..  ..  ..  ..  ..  ..  ..  ..  ..  ..  ..  ....",
"......  ..  ..  ..  ..  ..  ..  ..  ..  ..  ..  ..  ..  ..  ....",
"....  ..  ..  ..  ..  ..  ..  ..  ..  ..  ..  ..  ..  ..  ......",
"....  ..  ..  ..  ..  ..  ..  ..  ..  ..  ..  ..  ..  ..  ......",
"......  ..  ..  ..  ..  ..  ..  ..  ..  ..  ..  ..  ..  ..  ....",
"......  ..  ..  ..  ..  ..  ..  ..  ..  ..  ..  ..  ..  ..  ....",
"....  ..  ..  ..  ..  ..  ..  ..  ..  ..  ..  ..  ..  ..  ......",
"....  ..  ..  ..  ..  ..  ..  ..  ..  ..  ..  ..  ..  ..  ......",
"......  ..  ..  ..  ..  ..  ..  ..  ..  ..  ..  ..  ..  ..  ....",
"......  ..  ..  ..  ..  ..  ..  ..  ..  ..  ..  ..  ..  ..  ....",
"....  ..  ..  ..  ..  ..  ..  ..  ..  ..  ..  ..  ..  ..  ......",
"....  ..  ..  ..  ..  ..  ..  ..  ..  ..  ..  ..  ..  ..  ......",
"......  ..  ..  ..  ..  ..  ..  ..  ..  ..  ..  ..  ..  ..  ....",
"......  ..  ..  ..  ..  ..  ..  ..  ..  ..  ..  ..  ..  ..  ....",
"....  ..  ..  ..  ..  ..  ..  ..  ..  ..  ..  ..  ..  ..  ......",
"....  ..  ..  ..  ..  ..  ..  ..  ..  ..  ..  ..  ..  ..  ......",
"......  ..  ..  ..  ..  ..  ..  ..  ..  ..  ..  ..  ..  ..  ....",
"......  ..  ..  ..  ..  ..  ..  ..  ..  ..  ..  ..  ..  ..  ....",
"....  ..  ..  ..  ..  ..  ..  ..  ..  ..  ..  ..  ..  ..  ......",
"....  ..  ..  ..  ..  ..  ..  ..  ..  ..  ..  ..  ..  ..  ......",
"......  ..  ..  ..  ..  ..  ..  ..  ..  ..  ..  ..  ..  ..  ....",
"......  ..  ..  ..  ..  ..  ..  ..  ..  ..  ..  ..  ..  ..  ....",
"....  ..  ..  ..  ..  ..  ..  ..  ..  ..  ..  ..  ..  ..  ......",
"....  ..  ..  ..  ..  ..  ..  ..  ..  ..  ..  ..  ..  ..  ......",
"......  ..  ..  ..  ..  ..  ..  ..  ..  ..  ..  ..  ..  ..  ....",
"......  ..  ..  ..  ..  ..  ..  ..  ..  ..  ..  ..  ..  ..  ....",
"....  ..  ..  ..  ..  ..  ..  ..  ..  ..  ..  ..  ..  ..  ......",
"....  ..  ..  ..  ..  ..  ..  ..  ..  ..  ..  ..  ..  ..  ......",
"......  ..  ..  ..  ..  ..  ..  ..  ..  ..  ..  ..  ..  ..  ....",
"......  ..  ..  ..  ..  ..  ..  ..  ..  ..  ..  ..  ..  ..  ....",
"....  ..  ..  ..  ..  ..  ..  ..  ..  ..  ..  ..  ..  ..  ......",
"....  ..  ..  ..  ..  ..  ..  ..  ..  ..  ..  ..  ..  ..  ......",
"......  ..  ..  ..  ..  ..  ..  ..  ..  ..  ..  ..  ..  ..  ....",
"......  ..  ..  ..  ..  ..  ..  ..  ..  ..  ..  ..  ..  ..  ....",
"....  ..  ..  ..  ..  ..  ..  ..  ..  ..  ..  ..  ..  ..  ......",
"....  ..  ..  ..  ..  ..  ..  ..  ..  ..  ..  ..  ..  ..  ......",
"......  ..  ..  ..  ..  ..  ..  ..  ..  ..  ..  ..  ..  ..  ....",
"......  ..  ..  ..  ..  ..  ..  ..  ..  ..  ..  ..  ..  ..  ....",
"....  ..  ..  ..  ..  ..  ..  ..  ..  ..  ..  ..  ..  ..  ......",
"....  ..  ..  ..  ..  ..  ..  ..  ..  ..  ..  ..  ..  ..  ......",
"......  ..  ..  ..  ..  ..  ..  ..  ..  ..  ..  ..  ..  ..  ....",
"......  ..  ..  ..  ..  ..  ..  ..  ..  ..  ..  ..  ..  ..  ....",
"....  ..  ..  ..  ..  ..  ..  ..  ..  ..  ..  ..  ..  ..  ......",
"....  ..  ..  ..  ..  ..  ..  ..  ..  ..  ..  ..  ..  ..  ......",
"......  ..  ..  ..  ..  ..  ..  ..  ..  ..  ..  ..  ..  ..  ....",
"......  ..  ..  ..  ..  ..  ..  ..  ..  ..  ..  ..  ..  ..  ....",
"....  ..  ..  ..  ..  ..  ..  ..  ..  ..  ..  ..  ..  ..  ......",
"....  ..  ..  ..  ..  ..  ..  ..  ..  ..  ..  ..  ..  ..  ......",
"......  ..  ..  ..  ..  ..  ..  ..  ..  ..  ..  ..  ..  ..  ....",
"......  ..  ..  ..  ..  ..  ..  ..  ..  ..  ..  ..  ..  ..  ....",
"....  ..  ..  ..  ..  ..  ..  ..  ..  ..  ..  ..  ..  ..  ......",
"....  ..  ..  ..  ..  ..  ..  ..  ..  ..  ..  ..  ..  ..  ......",
"......  ..  ..  ..  ..  ..  ..  ..  ..  ..  ..  ..  ..  ..  ....",
"......  ..  ..  ..  ..  ..  ..  ..  ..  ..  ..  ..  ..  ..  ....",
"....  ..  ..  ..  ..  ..  ..  ..  ..  ..  ..  ..  ..  ..  ......",
"....  ..  ..  ..  ..  ..  ..  ..  ..  ..  ..  ..  ..  ..  ......",
"................................................................",
"................................................................",
"................................................................",
"................................................................"
};
