/* XPM */
static char *torch_3_1_png1750184131[] = {
/* columns rows colors chars-per-pixel */
"64 64 112 2 ",
"   c black",
".  c #2B1706",
"X  c #251B04",
"o  c #2D1905",
"O  c #241B0A",
"+  c #2A190B",
"@  c #301903",
"#  c #331D0B",
"$  c #3A3D0C",
"%  c #494209",
"&  c #535908",
"*  c #454416",
"=  c #404318",
"-  c #66450D",
";  c #664B0C",
":  c #64570A",
">  c #664715",
",  c #6C4516",
"<  c #624C12",
"1  c #6E421B",
"2  c #654A1D",
"3  c #7B6A14",
"4  c #5C4820",
"5  c #644820",
"6  c #6D7D38",
"7  c #767E39",
"8  c #5FB23E",
"9  c #66DE37",
"0  c #65DD3B",
"q  c #7EFF20",
"w  c #7CFF2A",
"e  c #4AB958",
"r  c #7EBC56",
"t  c #37D06C",
"y  c #60DD42",
"u  c #70D24B",
"i  c #77CC52",
"p  c #69DF56",
"a  c #67D75C",
"s  c #5EFF5E",
"d  c #64D471",
"f  c #6CDE71",
"g  c #79EB6A",
"h  c #63FF62",
"j  c #8E9B2D",
"k  c #A19E36",
"l  c #9FA837",
"z  c #9CA63A",
"x  c #9FAB38",
"c  c #A4A636",
"v  c #A4A539",
"b  c #A8A13C",
"n  c #8DFF05",
"m  c #82FF08",
"M  c #8DFF09",
"N  c #90FF07",
"B  c #92FF0A",
"V  c #84FF13",
"C  c #8DFE1C",
"Z  c #94FF1E",
"A  c #9DFF1A",
"S  c #A1FF0F",
"D  c #BEFE03",
"F  c #8AFC24",
"G  c #8AFE2A",
"H  c #95FF21",
"J  c #87FF3C",
"K  c #90FF39",
"L  c #A0FF23",
"P  c #BDFE2B",
"I  c #C7FF0B",
"U  c #D3FF04",
"Y  c #D7F51E",
"T  c #E6FB08",
"R  c #F9FF02",
"E  c #F8FE16",
"W  c #B39749",
"Q  c #91B144",
"!  c #99B344",
"~  c #A3A540",
"^  c #A4B44A",
"/  c #899B76",
"(  c #8DFC4A",
")  c #8EFD53",
"_  c #93FF57",
"`  c #B1FF5D",
"'  c #8AFC71",
"]  c #B1FF71",
"[  c #D6FF42",
"{  c #C8D86A",
"}  c #CADA6D",
"|  c #C9D676",
" . c #34FF9F",
".. c #3AFF9F",
"X. c #29FFBD",
"o. c #63FF83",
"O. c #55FFAF",
"+. c #7AFFB2",
"@. c #2EFFC6",
"#. c #BCFFAF",
"$. c #BEFFC9",
"%. c #ADFFEC",
"&. c #BFF6E1",
"*. c #B1FFEF",
"=. c #C0FFCE",
"-. c #C3FFD0",
";. c #C6FFE7",
":. c #C7FFEA",
">. c #C5FFEE",
",. c #C8FFED",
"<. c #C6FFF3",
"1. c #CBFFF2",
/* pixels */
"                                                                                                                                ",
"                                                                                                                                ",
"                                                                                                                                ",
"                                                                                                                                ",
"                                                                                                                                ",
"                                                                                                                                ",
"                                                                                                                                ",
"                                                                                                                                ",
"                                                                                                                                ",
"                                                                                                                                ",
"                                                                                                                                ",
"                                                                                                                                ",
"                                                                                                                                ",
"                                                                                                                                ",
"                                                                                                                                ",
"                                                                                                                                ",
"                                                                                                                                ",
"                                                                                                                                ",
"                                                                                                                                ",
"                                                                                                                                ",
"                                                                _                                                               ",
"                                                                J n                                                             ",
"                                                              p n M G                                                           ",
"                                                                p n M G                                                         ",
"                                                              g M A <.L 9                                                       ",
"                                                                M M B >.N 0                                                     ",
"                                                            ( ( n M n B n 0                                                     ",
"                                                          u D D n M n n n 0                                                     ",
"                                                        T n n M M n n F                                                         ",
"                                                      a U n n M M M M                                                           ",
"                                                    M n n n M V w M                                                             ",
"                                                    M n n n M V w M                                                             ",
"                                                  ' n n n n n %.s n n 0                                                         ",
"                                                    P n n C C :.%.s n n M                                                       ",
"                                                d [ K n M ] ] 1.O.q n M n                                                       ",
"                                                  R E M n H >.>.1. .n M M n M                                                   ",
"                                                    R M n :.#.#.>.+.n n M n M                                                   ",
"                                                    i I -.:.:.:.>.$.n n M n M                                                   ",
"                                                  i I -.:.:.:.>.$.n n M n M                                                     ",
"                                                  R ` >.,.<.<.>.=.B N n n M                                                     ",
"                                                Y S M >.<.<.<.<.<.$.n N n n                                                     ",
"                                                R V n M >.>.>.<.<.<.n N n                                                       ",
"                                                d T B M Z >.>.<.1.1.n n y                                                       ",
"                                                    ) n C ;.;.<.*.o.n C                                                         ",
"                                                Q     n Z >.>.1.@.h M a f                                                       ",
"                                              / ! ^ r t G &.&.X...m e 8 ! ^                                                     ",
"                                              / ! ^ r t G &.&.X...m e 8 ! ^                                                     ",
"                                            6 x | } & % * = = = * * $ { | z 6                                                   ",
"                                            6 v c x } } } } } } } } { z l v 7                                                   ",
"                                              j c ~ c c c c c v c c c k 3 ;                                                     ",
"                                              o 2 < ; b c c c c c c - > - o                                                     ",
"                                              o o o 4 , c b b v c : 5 o o o                                                     ",
"                                                o o + o @ o o o o X + o o                                                       ",
"                                                  o + o @ o o o o X + o                                                         ",
"                                                    o @ o o o o @ @ #                                                           ",
"                                                        X X X + 1                                                               ",
"                                                        4 X X O O                                                               ",
"                                                        W , , . O                                                               ",
"                                                        , 1 1 . O                                                               ",
"                                                        > 1 1 . O                                                               ",
"                                                        > 1 1 . O                                                               ",
"                                                        > 1 1 . O                                                               ",
"                                                        , > > X O                                                               ",
"                                                        2 , 5 O +                                                               "
};
