/* XPM */
static char *e311288ebac847d5e6fc11e02e5de9bbV8UIr8OzMJpZW8ah[] = {
/* columns rows colors chars-per-pixel */
"64 64 150 2 ",
"   c black",
".  c #2B1706",
"X  c #251B04",
"o  c #2D1905",
"O  c #241B0A",
"+  c #2A190B",
"@  c #301903",
"#  c #331D0B",
"$  c #3A3D0C",
"%  c #2E5836",
"&  c #494209",
"*  c #535908",
"=  c #454416",
"-  c #404318",
";  c #66450D",
":  c #664B0C",
">  c #64570A",
",  c #664715",
"<  c #6C4516",
"1  c #624C12",
"2  c #6E421B",
"3  c #654A1D",
"4  c #7B6A14",
"5  c #5C4820",
"6  c #644820",
"7  c #6D7D38",
"8  c #767E39",
"9  c #5FB23E",
"0  c #66DE37",
"q  c #65DD3B",
"w  c #7EFF20",
"e  c #7CFF2A",
"r  c #468B4B",
"t  c #4AB958",
"y  c #7EBC56",
"u  c #569764",
"i  c #719F7C",
"p  c #68B872",
"a  c #71B07D",
"s  c #37D06C",
"d  c #60DD42",
"f  c #70D24B",
"g  c #77CC52",
"h  c #69DF56",
"j  c #67D75C",
"k  c #5EFF5E",
"l  c #5ED564",
"z  c #5DD56B",
"x  c #53DD73",
"c  c #5BDF79",
"v  c #60CD65",
"b  c #6ACD67",
"n  c #66CF6B",
"m  c #63D366",
"M  c #63D26A",
"N  c #69D36B",
"B  c #6CD769",
"V  c #6BC177",
"C  c #6BCD70",
"Z  c #64D471",
"A  c #6CDE71",
"S  c #60DA7A",
"D  c #51E27C",
"F  c #79EB6A",
"G  c #63FF62",
"H  c #6AEE7A",
"J  c #8E9B2D",
"K  c #A19E36",
"L  c #9FA837",
"P  c #9CA63A",
"I  c #9FAB38",
"U  c #A4A636",
"Y  c #A4A539",
"T  c #A8A13C",
"R  c #8DFF05",
"E  c #82FF08",
"W  c #8DFF09",
"Q  c #90FF07",
"!  c #92FF0A",
"~  c #84FF13",
"^  c #8DFE1C",
"/  c #94FF1E",
"(  c #9DFF1A",
")  c #A1FF0F",
"_  c #BEFE03",
"`  c #8AFC24",
"'  c #8AFE2A",
"]  c #95FF21",
"[  c #87FF3C",
"{  c #90FF39",
"}  c #A0FF23",
"|  c #BDFE2B",
" . c #C7FF0B",
".. c #D3FF04",
"X. c #D7F51E",
"o. c #E6FB08",
"O. c #F9FF02",
"+. c #F8FE16",
"@. c #B39749",
"#. c #91B144",
"$. c #99B344",
"%. c #A3A540",
"&. c #A4B44A",
"*. c #899B76",
"=. c #8DFC4A",
"-. c #8EFD53",
";. c #93FF57",
":. c #B1FF5D",
">. c #8AFC71",
",. c #B1FF71",
"<. c #D6FF42",
"1. c #C8D86A",
"2. c #CADA6D",
"3. c #C9D676",
"4. c #729789",
"5. c #77AD83",
"6. c #34FF9F",
"7. c #3AFF9F",
"8. c #29FFBD",
"9. c #74DE99",
"0. c #45EF84",
"q. c #52E384",
"w. c #5CEB86",
"e. c #55EE8D",
"r. c #4FF794",
"t. c #4EF890",
"y. c #56F195",
"u. c #5FF39E",
"i. c #64EE89",
"p. c #63FF83",
"a. c #72E79F",
"s. c #55FFAF",
"d. c #7AFFB2",
"f. c #2EFFC6",
"g. c #84A987",
"h. c #86AA88",
"j. c #8BBD8B",
"k. c #BCFFAF",
"l. c #BEFFC9",
"z. c #ADFFEC",
"x. c #BFF6E1",
"c. c #B1FFEF",
"v. c #C0FFCE",
"b. c #C3FFD0",
"n. c #C6FFE7",
"m. c #C7FFEA",
"M. c #C5FFEE",
"N. c #C8FFED",
"B. c #C6FFF3",
"V. c #CBFFF2",
/* pixels */
"                                                                                                                                ",
"                                                                                                                                ",
"                                                                                                                                ",
"                                                                                                                                ",
"                                                                                                                                ",
"                                                                                                                                ",
"                                                                                                                                ",
"                                                                c                                                               ",
"                                                              c                                                                 ",
"                                                            j.M 9.                                                              ",
"                                                        h.h.m n w.                                                              ",
"                                                          M M m m i.                                                            ",
"                                                        V m m m m z a.                                                          ",
"                                                        m m m m m m m m                                                         ",
"                                                      g.m M M M m m M M                                                         ",
"                                                      S M m m m m m l v a                                                       ",
"                                                    S M m m m m m l v a                                                         ",
"                                                    x M M M M m m m m p                                                         ",
"                                                e.M M m m m m m m m n                                                           ",
"                                              u.m m M m m m m m m m B                                                           ",
"                                              0.M M M m m m m m ;.B M M                                                         ",
"                                              4.M m M M M M M m m [ W m N                                                       ",
"                                              4.M M M m M M M M h R W ' M C                                                     ",
"                                                4.M M M m M M M M h R W ' M C                                                   ",
"                                                5.M M M M M m m F W ( M.} 0 z                                                   ",
"                                                q.m m M M M M M W W Q M.Q q M r                                                 ",
"                                              D m m m M C =.=.W W W ! W q M m                                                   ",
"                                            i x M M m M f _ _ W W W W W q M m u u                                               ",
"                                          y.M M M M M o.W W W W W W ` m M M m m                                                 ",
"                                          y.M M M M j ..W W W W W W m m m m m m                                                 ",
"                                          y.M M M M W R R R W ~ e W m m m m m m                                                 ",
"                                            y.M M M M W R W W W ~ e W m m m m m m                                               ",
"                                          z M M M M >.W W W W R z.k W R q m m m m                                               ",
"                                          y.M m m m M | W R ^ ^ m.z.k W R W m m H H %                                           ",
"                                          y.m l m Z <.{ W W ,.,.V.s.w W W W m m m m y.                                          ",
"                                          y.m l M O.+.W W ] M.M.V.6.R W W W W m M M r.                                          ",
"                                        y.l l b z O.W W m.k.k.M.d.R R W W W m m m r.                                            ",
"                                        y.z l m m g  .b.m.m.m.M.l.R W W W W m m m t.                                            ",
"                                        y.z l m m g  .b.m.m.m.M.l.R W W W W m m m t.                                            ",
"                                        y.B m M z O.:.M.N.B.B.M.v.! Q W W W m N N e.                                            ",
"                                          y.M m X.) W M.B.B.B.B.B.l.W Q W R m w.w.                                              ",
"                                            y.M O.~ W W M.M.M.B.M.B.W Q W m m                                                   ",
"                                              b Z o.! W / M.M.B.V.V.W W d m v                                                   ",
"                                                B z -.W ^ n.n.B.c.p.R ^ m z                                                     ",
"                                                #.l m R / M.M.V.f.G W j A                                                       ",
"                                              *.$.&.y s ' x.x.8.7.E t 9 $.&.                                                    ",
"                                              *.$.&.y s ' x.x.8.7.E t 9 $.&.                                                    ",
"                                            7 I 3.2.* & = - - - = = $ 1.3.P 7                                                   ",
"                                            7 Y U I 2.2.2.2.2.2.2.2.1.P L Y 8                                                   ",
"                                              J U %.U U U U U Y U U U K 4 :                                                     ",
"                                              o 3 1 : T U U U U U U ; , ; o                                                     ",
"                                              o o o 5 < U T T Y U > 6 o o o                                                     ",
"                                                o o + o @ o o o o X + o o                                                       ",
"                                                  o + o @ o o o o X + o                                                         ",
"                                                    o @ o o o o @ @ #                                                           ",
"                                                        X X X + 2                                                               ",
"                                                        5 X X O O                                                               ",
"                                                        @.< < . O                                                               ",
"                                                        < 2 2 . O                                                               ",
"                                                        , 2 2 . O                                                               ",
"                                                        , 2 2 . O                                                               ",
"                                                        , 2 2 . O                                                               ",
"                                                        < , , X O                                                               ",
"                                                        3 < 6 O +                                                               "
};
