/* XPM */
static char *e9632139bb10494c90b357a9c1a1c4dbuNsgYMJdZZAiPivt[] = {
/* columns rows colors chars-per-pixel */
"64 64 107 2 ",
"   c black",
".  c #2B1706",
"X  c #251B04",
"o  c #2D1905",
"O  c #241B0A",
"+  c #2A190B",
"@  c #301903",
"#  c #331D0B",
"$  c #3A3D0C",
"%  c #494209",
"&  c #535908",
"*  c #454416",
"=  c #404318",
"-  c #66450D",
";  c #664B0C",
":  c #64570A",
">  c #664715",
",  c #6C4516",
"<  c #624C12",
"1  c #6E421B",
"2  c #654A1D",
"3  c #7B6A14",
"4  c #5C4820",
"5  c #644820",
"6  c #6D7D38",
"7  c #767E39",
"8  c #5FB23E",
"9  c #66DE37",
"0  c #65DD3B",
"q  c #7EFF20",
"w  c #7CFF2A",
"e  c #4AB958",
"r  c #7EBC56",
"t  c #37D06C",
"y  c #60DD42",
"u  c #70D24B",
"i  c #69DF56",
"p  c #67D75C",
"a  c #5EFF5E",
"s  c #6CDE71",
"d  c #79EB6A",
"f  c #63FF62",
"g  c #8E9B2D",
"h  c #A19E36",
"j  c #9FA837",
"k  c #9CA63A",
"l  c #9FAB38",
"z  c #A4A636",
"x  c #A4A539",
"c  c #A8A13C",
"v  c #8DFF05",
"b  c #82FF08",
"n  c #8DFF09",
"m  c #90FF07",
"M  c #92FF0A",
"N  c #84FF13",
"B  c #8DFE1C",
"V  c #94FF1E",
"C  c #9DFF1A",
"Z  c #A1FF0F",
"A  c #BEFE03",
"S  c #8AFC24",
"D  c #8AFE2A",
"F  c #95FF21",
"G  c #87FF3C",
"H  c #90FF39",
"J  c #A0FF23",
"K  c #BDFE2B",
"L  c #C7FF0B",
"P  c #D3FF04",
"I  c #E6FB08",
"U  c #B39749",
"Y  c #91B144",
"T  c #99B344",
"R  c #A3A540",
"E  c #A4B44A",
"W  c #899B76",
"Q  c #8DFC4A",
"!  c #8EFD53",
"~  c #93FF57",
"^  c #B1FF5D",
"/  c #8AFC71",
"(  c #B1FF71",
")  c #D6FF42",
"_  c #C8D86A",
"`  c #CADA6D",
"'  c #C9D676",
"]  c #34FF9F",
"[  c #3AFF9F",
"{  c #29FFBD",
"}  c #63FF83",
"|  c #55FFAF",
" . c #7AFFB2",
".. c #2EFFC6",
"X. c #BCFFAF",
"o. c #BEFFC9",
"O. c #ADFFEC",
"+. c #BFF6E1",
"@. c #B1FFEF",
"#. c #C0FFCE",
"$. c #C3FFD0",
"%. c #C6FFE7",
"&. c #C7FFEA",
"*. c #C5FFEE",
"=. c #C8FFED",
"-. c #C6FFF3",
";. c #CBFFF2",
/* pixels */
"                                                                                                                                ",
"                                                                                                                                ",
"                                                                                                                                ",
"                                                                                                                                ",
"                                                                                                                                ",
"                                                                                                                                ",
"                                                                                                                                ",
"                                                                                                                                ",
"                                                                                                                                ",
"                                                                                                                                ",
"                                                                                                                                ",
"                                                                                                                                ",
"                                                                                                                                ",
"                                                                                                                                ",
"                                                                                                                                ",
"                                                                                                                                ",
"                                                                                                                                ",
"                                                                                                                                ",
"                                                                                                                                ",
"                                                                                                                                ",
"                                                                    ~                                                           ",
"                                                                    G v                                                         ",
"                                                                  i v n D                                                       ",
"                                                                i v n D                                                         ",
"                                                              d n C -.J 9                                                       ",
"                                                            n n M *.m 0                                                         ",
"                                                        Q Q v n v M v 0                                                         ",
"                                                      u A A v n v v v 0                                                         ",
"                                                        I v v n n v v S                                                         ",
"                                                      p P v v n n n n                                                           ",
"                                                        n v v v n N w n                                                         ",
"                                                        n v v v n N w n                                                         ",
"                                                      / v v v v v O.a v v 0                                                     ",
"                                                    K v v B B &.O.a v v n                                                       ",
"                                                  ) H v n ( ( ;.| q v n v                                                       ",
"                                                  n v F *.*.;.] v n n v n                                                       ",
"                                                  n v &.X.X.*. .v v n v n                                                       ",
"                                                  L $.&.&.&.*.o.v v n v n                                                       ",
"                                                    L $.&.&.&.*.o.v v n v n                                                     ",
"                                                    ^ *.=.-.-.*.#.M m v v n                                                     ",
"                                                  Z n *.-.-.-.-.-.o.v m v v                                                     ",
"                                                  N v n *.*.*.-.-.-.v m v                                                       ",
"                                                  I M n V *.*.-.;.;.v v y                                                       ",
"                                                    ! v B %.%.-.@.} v B                                                         ",
"                                                Y     v V *.*.;...f n p s                                                       ",
"                                              W T E r t D +.+.{ [ b e 8 T E                                                     ",
"                                              W T E r t D +.+.{ [ b e 8 T E                                                     ",
"                                            6 l ' ` & % * = = = * * $ _ ' k 6                                                   ",
"                                            6 x z l ` ` ` ` ` ` ` ` _ k j x 7                                                   ",
"                                              g z R z z z z z x z z z h 3 ;                                                     ",
"                                              o 2 < ; c z z z z z z - > - o                                                     ",
"                                              o o o 4 , z c c x z : 5 o o o                                                     ",
"                                                o o + o @ o o o o X + o o                                                       ",
"                                                  o + o @ o o o o X + o                                                         ",
"                                                    o @ o o o o @ @ #                                                           ",
"                                                        X X X + 1                                                               ",
"                                                        4 X X O O                                                               ",
"                                                        U , , . O                                                               ",
"                                                        , 1 1 . O                                                               ",
"                                                        > 1 1 . O                                                               ",
"                                                        > 1 1 . O                                                               ",
"                                                        > 1 1 . O                                                               ",
"                                                        , > > X O                                                               ",
"                                                        2 , 5 O +                                                               "
};
