/* XPM */
static char *torch_4_1_png_1_1750184131[] = {
/* columns rows colors chars-per-pixel */
"64 64 76 1 ",
"  c black",
". c #2B1706",
"X c #251B04",
"o c #2D1905",
"O c #241B0A",
"+ c #2A190B",
"@ c #301903",
"# c #331D0B",
"$ c #3A3D0C",
"% c #494209",
"& c #535908",
"* c #454416",
"= c #404318",
"- c #66450D",
"; c #664B0C",
": c #64570A",
"> c #664715",
", c #6C4516",
"< c #624C12",
"1 c #6E421B",
"2 c #654A1D",
"3 c #7B6A14",
"4 c #5C4820",
"5 c #644820",
"6 c #6D7D38",
"7 c #767E39",
"8 c #5FB23E",
"9 c #7EFF20",
"0 c #7CFF2A",
"q c #7EBC56",
"w c #37D06C",
"e c #5EFF5E",
"r c #63FF62",
"t c #8E9B2D",
"y c #A19E36",
"u c #9FA837",
"i c #9CA63A",
"p c #9FAB38",
"a c #A4A636",
"s c #A4A539",
"d c #A8A13C",
"f c #82FF08",
"g c #94FF1E",
"h c #95FF21",
"j c #C7FF0B",
"k c #B39749",
"l c #91B144",
"z c #99B344",
"x c #A3A540",
"c c #A4B44A",
"v c #899B76",
"b c #B1FF5D",
"n c #B1FF71",
"m c #C8D86A",
"M c #CADA6D",
"N c #C9D676",
"B c #34FF9F",
"V c #3AFF9F",
"C c #29FFBD",
"Z c #63FF83",
"A c #55FFAF",
"S c #7AFFB2",
"D c #2EFFC6",
"F c #BCFFAF",
"G c #BEFFC9",
"H c #ADFFEC",
"J c #BFF6E1",
"K c #B1FFEF",
"L c #C0FFCE",
"P c #C3FFD0",
"I c #C6FFE7",
"U c #C7FFEA",
"Y c #C5FFEE",
"T c #C8FFED",
"R c #C6FFF3",
"E c #CBFFF2",
/* pixels */
"                                                                ",
"                                                                ",
"                                                                ",
"                                                                ",
"                                                                ",
"                                                                ",
"                                                                ",
"                                                                ",
"                                                                ",
"                                                                ",
"                                                                ",
"                                                                ",
"                                                                ",
"                                                                ",
"                                                                ",
"                                                                ",
"                                                                ",
"                                                                ",
"                                                                ",
"                                                                ",
"                                                                ",
"                                                                ",
"                                                                ",
"                                                                ",
"                                  R                             ",
"                                 Y                              ",
"                                                                ",
"                                                                ",
"                                                                ",
"                                                                ",
"                                  0                             ",
"                                  0                             ",
"                                 He                             ",
"                               UHe                              ",
"                             nnEA9                              ",
"                           hYYEB                                ",
"                           UFFYS                                ",
"                         jPUUUYG                                ",
"                          jPUUUYG                               ",
"                          bYTRRYL                               ",
"                           YRRRRRG                              ",
"                            YYYRRR                              ",
"                            gYYREE                              ",
"                             IIRKZ                              ",
"                        l   gYYEDr                              ",
"                       vzcqw JJCVf 8zc                          ",
"                       vzcqw JJCVf 8zc                          ",
"                      6pNM&%*===**$mNi6                         ",
"                      6sapMMMMMMMMmius7                         ",
"                       taxaaaaasaaay3;                          ",
"                       o2<;daaaaaa->-o                          ",
"                       ooo4,addsa:5ooo                          ",
"                        oo+o@ooooX+oo                           ",
"                         o+o@ooooX+o                            ",
"                          o@oooo@@#                             ",
"                            XXX+1                               ",
"                            4XXOO                               ",
"                            k,,.O                               ",
"                            ,11.O                               ",
"                            >11.O                               ",
"                            >11.O                               ",
"                            >11.O                               ",
"                            ,>>XO                               ",
"                            2,5O+                               "
};
