/* XPM */
static char *a1fc0643f97e4464ed4977042eaada5dn1gBp1DPzvTV6Z1n[] = {
/* columns rows colors chars-per-pixel */
"64 64 65 1 ",
"  c black",
". c #2B1706",
"X c #251B04",
"o c #2D1905",
"O c #241B0A",
"+ c #2A190B",
"@ c #301903",
"# c #331D0B",
"$ c #3A3D0C",
"% c #494209",
"& c #535908",
"* c #454416",
"= c #404318",
"- c #66450D",
"; c #664B0C",
": c #64570A",
"> c #664715",
", c #6C4516",
"< c #624C12",
"1 c #6E421B",
"2 c #654A1D",
"3 c #7B6A14",
"4 c #5C4820",
"5 c #644820",
"6 c #6D7D38",
"7 c #767E39",
"8 c #5FB23E",
"9 c #7EBC56",
"0 c #37D06C",
"q c #8E9B2D",
"w c #A19E36",
"e c #9FA837",
"r c #9CA63A",
"t c #9FAB38",
"y c #A4A636",
"u c #A4A539",
"i c #A8A13C",
"p c #B39749",
"a c #91B144",
"s c #99B344",
"d c #A3A540",
"f c #A4B44A",
"g c #899B76",
"h c #C8D86A",
"j c #CADA6D",
"k c #C9D676",
"l c #34FF9F",
"z c #29FFBD",
"x c #63FF83",
"c c #55FFAF",
"v c #7AFFB2",
"b c #2EFFC6",
"n c #BCFFAF",
"m c #BEFFC9",
"M c #ADFFEC",
"N c #BFF6E1",
"B c #B1FFEF",
"V c #C0FFCE",
"C c #C3FFD0",
"Z c #C6FFE7",
"A c #C7FFEA",
"S c #C5FFEE",
"D c #C8FFED",
"F c #C6FFF3",
"G c #CBFFF2",
/* pixels */
"                                                                ",
"                                                                ",
"                                                                ",
"                                                                ",
"                                                                ",
"                                                                ",
"                                                                ",
"                                                                ",
"                                                                ",
"                                                                ",
"                                                                ",
"                                                                ",
"                                                                ",
"                                                                ",
"                                                                ",
"                                                                ",
"                                                                ",
"                                                                ",
"                                                                ",
"                                                                ",
"                                                                ",
"                                                                ",
"                                                                ",
"                                                                ",
"                                   S                            ",
"                                   S                            ",
"                                                                ",
"                                                                ",
"                                                                ",
"                                                                ",
"                                                                ",
"                                                                ",
"                                M                               ",
"                                AM                              ",
"                                Gc                              ",
"                              SSGl                              ",
"                            AnnSv                               ",
"                           CAAASm                               ",
"                           CAAASm                               ",
"                           SDFFSV                               ",
"                           SFFFFFm                              ",
"                            SSSFSF                              ",
"                             SSFGG                              ",
"                             ZZFBx                              ",
"                        a    SSGb                               ",
"                       gsf90 NNz   8sf                          ",
"                       gsf90 NNz   8sf                          ",
"                      6tkj&%*===**$hkr6                         ",
"                      6uytjjjjjjjjhreu7                         ",
"                       qydyyyyyuyyyw3;                          ",
"                       o2<;iyyyyyy->-o                          ",
"                       ooo4,yiiuy:5ooo                          ",
"                        oo+o@ooooX+oo                           ",
"                         o+o@ooooX+o                            ",
"                          o@oooo@@#                             ",
"                            XXX+1                               ",
"                            4XXOO                               ",
"                            p,,.O                               ",
"                            ,11.O                               ",
"                            >11.O                               ",
"                            >11.O                               ",
"                            >11.O                               ",
"                            ,>>XO                               ",
"                            2,5O+                               "
};
