/* XPM */
static char *_211e5740bb94ee986140678aba5a38ek2g6CTrTlVPjHRQI[] = {
/* columns rows colors chars-per-pixel */
"64 64 57 1 ",
"  c black",
". c #2B1706",
"X c #251B04",
"o c #2D1905",
"O c #241B0A",
"+ c #2A190B",
"@ c #301903",
"# c #331D0B",
"$ c #3A3D0C",
"% c #494209",
"& c #535908",
"* c #454416",
"= c #404318",
"- c #66450D",
"; c #664B0C",
": c #64570A",
"> c #664715",
", c #6C4516",
"< c #624C12",
"1 c #6E421B",
"2 c #654A1D",
"3 c #7B6A14",
"4 c #5C4820",
"5 c #644820",
"6 c #6D7D38",
"7 c #767E39",
"8 c #7EBC56",
"9 c #8E9B2D",
"0 c #A19E36",
"q c #9FA837",
"w c #9CA63A",
"e c #9FAB38",
"r c #A4A636",
"t c #A4A539",
"y c #A8A13C",
"u c #B39749",
"i c #91B144",
"p c #99B344",
"a c #A3A540",
"s c #A4B44A",
"d c #899B76",
"f c #C8D86A",
"g c #CADA6D",
"h c #C9D676",
"j c #BCFFAF",
"k c #BEFFC9",
"l c #ADFFEC",
"z c #BFF6E1",
"x c #B1FFEF",
"c c #C0FFCE",
"v c #C3FFD0",
"b c #C6FFE7",
"n c #C7FFEA",
"m c #C5FFEE",
"M c #C8FFED",
"N c #C6FFF3",
"B c #CBFFF2",
/* pixels */
"                                                                ",
"                                                                ",
"                                                                ",
"                                                                ",
"                                                                ",
"                                                                ",
"                                                                ",
"                                                                ",
"                                                                ",
"                                                                ",
"                                                                ",
"                                                                ",
"                                                                ",
"                                                                ",
"                                                                ",
"                                                                ",
"                                                                ",
"                                                                ",
"                                                                ",
"                                                                ",
"                                                                ",
"                                                                ",
"                                                                ",
"                                                                ",
"                                  N                             ",
"                                 m                              ",
"                                                                ",
"                                                                ",
"                                                                ",
"                                                                ",
"                                                                ",
"                                                                ",
"                                 l                              ",
"                               nl                               ",
"                               B                                ",
"                            mmB                                 ",
"                           njjm                                 ",
"                          vnnnmk                                ",
"                           vnnnmk                               ",
"                           mMNNmc                               ",
"                           mNNNNNk                              ",
"                            mmmNNN                              ",
"                             mmNBB                              ",
"                             bbNx                               ",
"                        i    mmB                                ",
"                       dps8  zz     ps                          ",
"                       dps8  zz     ps                          ",
"                      6ehg&%*===**$fhw6                         ",
"                      6treggggggggfwqt7                         ",
"                       9rarrrrrtrrr03;                          ",
"                       o2<;yrrrrrr->-o                          ",
"                       ooo4,ryytr:5ooo                          ",
"                        oo+o@ooooX+oo                           ",
"                         o+o@ooooX+o                            ",
"                          o@oooo@@#                             ",
"                            XXX+1                               ",
"                            4XXOO                               ",
"                            u,,.O                               ",
"                            ,11.O                               ",
"                            >11.O                               ",
"                            >11.O                               ",
"                            >11.O                               ",
"                            ,>>XO                               ",
"                            2,5O+                               "
};
