/* XPM */
static char *torch_3_1_png_1_1750184131[] = {
/* columns rows colors chars-per-pixel */
"64 64 63 1 ",
"  c black",
". c #2B1706",
"X c #251B04",
"o c #2D1905",
"O c #241B0A",
"+ c #2A190B",
"@ c #301903",
"# c #331D0B",
"$ c #3A3D0C",
"% c #494209",
"& c #535908",
"* c #454416",
"= c #404318",
"- c #66450D",
"; c #664B0C",
": c #64570A",
"> c #664715",
", c #6C4516",
"< c #624C12",
"1 c #6E421B",
"2 c #654A1D",
"3 c #7B6A14",
"4 c #5C4820",
"5 c #644820",
"6 c #6D7D38",
"7 c #767E39",
"8 c #5FB23E",
"9 c #4AB958",
"0 c #7EBC56",
"q c #37D06C",
"w c #8E9B2D",
"e c #A19E36",
"r c #9FA837",
"t c #9CA63A",
"y c #9FAB38",
"u c #A4A636",
"i c #A4A539",
"p c #A8A13C",
"a c #B39749",
"s c #91B144",
"d c #99B344",
"f c #A3A540",
"g c #A4B44A",
"h c #899B76",
"j c #C8D86A",
"k c #CADA6D",
"l c #C9D676",
"z c #29FFBD",
"x c #55FFAF",
"c c #7AFFB2",
"v c #BCFFAF",
"b c #BEFFC9",
"n c #ADFFEC",
"m c #BFF6E1",
"M c #B1FFEF",
"N c #C0FFCE",
"B c #C3FFD0",
"V c #C6FFE7",
"C c #C7FFEA",
"Z c #C5FFEE",
"A c #C8FFED",
"S c #C6FFF3",
"D c #CBFFF2",
/* pixels */
"                                                                ",
"                                                                ",
"                                                                ",
"                                                                ",
"                                                                ",
"                                                                ",
"                                                                ",
"                                                                ",
"                                                                ",
"                                                                ",
"                                                                ",
"                                                                ",
"                                                                ",
"                                                                ",
"                                                                ",
"                                                                ",
"                                                                ",
"                                                                ",
"                                                                ",
"                                                                ",
"                                                                ",
"                                                                ",
"                                                                ",
"                                                                ",
"                                  S                             ",
"                                   Z                            ",
"                                                                ",
"                                                                ",
"                                                                ",
"                                                                ",
"                                                                ",
"                                                                ",
"                               n                                ",
"                               Cn                               ",
"                               Dx                               ",
"                              ZZD                               ",
"                             CvvZc                              ",
"                            BCCCZb                              ",
"                           BCCCZb                               ",
"                           ZASSZN                               ",
"                           ZSSSSSb                              ",
"                            ZZZSSS                              ",
"                             ZZSDD                              ",
"                             VVSM                               ",
"                        s    ZZD                                ",
"                       hdg0q mmz  98dg                          ",
"                       hdg0q mmz  98dg                          ",
"                      6ylk&%*===**$jlt6                         ",
"                      6iuykkkkkkkkjtri7                         ",
"                       wufuuuuuiuuue3;                          ",
"                       o2<;puuuuuu->-o                          ",
"                       ooo4,uppiu:5ooo                          ",
"                        oo+o@ooooX+oo                           ",
"                         o+o@ooooX+o                            ",
"                          o@oooo@@#                             ",
"                            XXX+1                               ",
"                            4XXOO                               ",
"                            a,,.O                               ",
"                            ,11.O                               ",
"                            >11.O                               ",
"                            >11.O                               ",
"                            >11.O                               ",
"                            ,>>XO                               ",
"                            2,5O+                               "
};
